<?xml version="1.0" standalone="no"?>
<!DOCTYPE svg PUBLIC "-//W3C//DTD SVG 20010904//EN"
 "http://www.w3.org/TR/2001/REC-SVG-20010904/DTD/svg10.dtd">
<svg version="1.0" xmlns="http://www.w3.org/2000/svg"
 width="194.000000pt" height="194.000000pt" viewBox="0 0 194.000000 194.000000"
 preserveAspectRatio="xMidYMid meet">
<metadata>
Created by potrace 1.11, written by Peter Selinger 2001-2013
</metadata>
<g transform="translate(0.000000,194.000000) scale(0.100000,-0.100000)"
fill="#000000" stroke="none">
<path d="M934 1839 c-23 -4 -61 -13 -85 -20 -24 -7 -48 -13 -54 -14 -5 -2 -68
-17 -140 -35 -71 -17 -137 -33 -145 -35 -65 -14 -281 -68 -308 -76 -42 -14
-64 -55 -58 -111 3 -24 8 -70 11 -103 3 -33 8 -76 10 -95 2 -19 7 -66 10 -105
3 -38 8 -88 11 -110 6 -55 13 -128 19 -205 3 -36 8 -76 10 -90 2 -14 7 -59 10
-100 17 -192 24 -249 37 -269 11 -18 40 -34 454 -247 277 -142 241 -137 404
-52 106 56 334 174 467 242 39 21 76 43 81 49 13 17 22 59 27 130 3 34 7 85
11 112 3 28 7 66 9 85 1 19 6 64 9 100 4 36 9 86 11 113 6 60 13 130 19 187 3
25 8 77 11 115 4 39 10 98 14 132 13 113 -8 133 -159 154 -117 16 -119 16
-170 24 -25 3 -56 8 -70 10 -31 4 -110 17 -130 20 -8 1 -42 6 -75 11 -33 4
-63 8 -67 10 -5 1 -19 2 -32 3 -22 1 -23 5 -25 59 -2 91 -38 125 -117 111z"/>
</g>
</svg>
